<?xml version="1.0" encoding="UTF-8" standalone="no"?>
<!DOCTYPE svg PUBLIC "-//W3C//DTD SVG 1.1//EN"
 "http://www.w3.org/Graphics/SVG/1.1/DTD/svg11.dtd">
<!-- Generated by graphviz version 2.38.0 (20140413.2041)
 -->
<!-- Title: gods Pages: 1 -->
<svg width="1847pt" height="332pt"
 viewBox="0.00 0.00 1847.22 332.00" xmlns="http://www.w3.org/2000/svg" xmlns:xlink="http://www.w3.org/1999/xlink">
<g id="graph0" class="graph" transform="scale(1 1) rotate(0) translate(4 328)">
<title>gods</title>
<polygon fill="white" stroke="none" points="-4,4 -4,-328 1843.22,-328 1843.22,4 -4,4"/>
<!-- Zeus -->
<g id="node1" class="node"><title>Zeus</title>
<ellipse fill="none" stroke="blue" cx="876.562" cy="-162" rx="27.0958" ry="18"/>
<text text-anchor="middle" x="876.562" y="-157.8" font-family="Times,serif" font-size="14.00">Zeus</text>
</g>
<!-- Ares -->
<g id="node4" class="node"><title>Ares</title>
<ellipse fill="none" stroke="blue" cx="129.562" cy="-90" rx="27" ry="18"/>
<text text-anchor="middle" x="129.562" y="-85.8" font-family="Times,serif" font-size="14.00">Ares</text>
</g>
<!-- Zeus&#45;&gt;Ares -->
<g id="edge15" class="edge"><title>Zeus&#45;&gt;Ares</title>
<path fill="none" stroke="black" d="M852.291,-153.64C839.668,-150.119 823.915,-146.201 809.562,-144 526.206,-100.547 443.425,-178.509 165.562,-108 163.385,-107.447 161.18,-106.761 158.99,-105.984"/>
<polygon fill="black" stroke="black" points="160.193,-102.694 149.613,-102.129 157.531,-109.168 160.193,-102.694"/>
</g>
<!-- Apollo -->
<g id="node5" class="node"><title>Apollo</title>
<ellipse fill="none" stroke="blue" cx="1191.56" cy="-90" rx="34.8458" ry="18"/>
<text text-anchor="middle" x="1191.56" y="-85.8" font-family="Times,serif" font-size="14.00">Apollo</text>
</g>
<!-- Zeus&#45;&gt;Apollo -->
<g id="edge19" class="edge"><title>Zeus&#45;&gt;Apollo</title>
<path fill="none" stroke="black" d="M901.277,-154.26C913.88,-150.942 929.482,-147.018 943.562,-144 1034.01,-124.611 1059.54,-133.134 1148.56,-108 1151,-107.313 1153.48,-106.538 1155.97,-105.706"/>
<polygon fill="black" stroke="black" points="1157.25,-108.966 1165.47,-102.288 1154.88,-102.379 1157.25,-108.966"/>
</g>
<!-- Zagreus -->
<g id="node6" class="node"><title>Zagreus</title>
<ellipse fill="none" stroke="blue" cx="1026.56" cy="-18" rx="38.6782" ry="18"/>
<text text-anchor="middle" x="1026.56" y="-13.8" font-family="Times,serif" font-size="14.00">Zagreus</text>
</g>
<!-- Zeus&#45;&gt;Zagreus -->
<g id="edge26" class="edge"><title>Zeus&#45;&gt;Zagreus</title>
<path fill="none" stroke="black" d="M884.046,-144.548C893.438,-125.3 911.077,-93.3534 933.562,-72 949.743,-56.6346 971.203,-44.0236 989.432,-34.9633"/>
<polygon fill="black" stroke="black" points="991.123,-38.0343 998.625,-30.5532 988.095,-31.723 991.123,-38.0343"/>
</g>
<!-- Hermes -->
<g id="node8" class="node"><title>Hermes</title>
<ellipse fill="none" stroke="blue" cx="772.562" cy="-90" rx="37.7179" ry="18"/>
<text text-anchor="middle" x="772.562" y="-85.8" font-family="Times,serif" font-size="14.00">Hermes</text>
</g>
<!-- Zeus&#45;&gt;Hermes -->
<g id="edge30" class="edge"><title>Zeus&#45;&gt;Hermes</title>
<path fill="none" stroke="black" d="M857.969,-148.485C842.404,-138.009 819.914,-122.871 801.919,-110.76"/>
<polygon fill="black" stroke="black" points="803.747,-107.771 793.497,-105.091 799.838,-113.578 803.747,-107.771"/>
</g>
<!-- Dionysus -->
<g id="node9" class="node"><title>Dionysus</title>
<ellipse fill="none" stroke="blue" cx="1287.56" cy="-90" rx="43.5405" ry="18"/>
<text text-anchor="middle" x="1287.56" y="-85.8" font-family="Times,serif" font-size="14.00">Dionysus</text>
</g>
<!-- Zeus&#45;&gt;Dionysus -->
<g id="edge32" class="edge"><title>Zeus&#45;&gt;Dionysus</title>
<path fill="none" stroke="black" d="M901.216,-153.954C913.803,-150.559 929.409,-146.657 943.562,-144 1072.08,-119.873 1107.93,-136.449 1235.56,-108 1239,-107.233 1242.54,-106.331 1246.07,-105.349"/>
<polygon fill="black" stroke="black" points="1247.35,-108.622 1255.93,-102.416 1245.35,-101.912 1247.35,-108.622"/>
</g>
<!-- Melinoe -->
<g id="node17" class="node"><title>Melinoe</title>
<ellipse fill="none" stroke="pink" cx="930.562" cy="-18" rx="39.6558" ry="18"/>
<text text-anchor="middle" x="930.562" y="-13.8" font-family="Times,serif" font-size="14.00">Melinoe</text>
</g>
<!-- Zeus&#45;&gt;Melinoe -->
<g id="edge24" class="edge"><title>Zeus&#45;&gt;Melinoe</title>
<path fill="none" stroke="black" d="M879.844,-143.852C883.64,-125.617 890.663,-96.1342 900.562,-72 904.393,-62.661 909.539,-52.9166 914.486,-44.368"/>
<polygon fill="black" stroke="black" points="917.578,-46.0162 919.705,-35.6369 911.57,-42.4247 917.578,-46.0162"/>
</g>
<!-- Artemis -->
<g id="node18" class="node"><title>Artemis</title>
<ellipse fill="none" stroke="pink" cx="1100.56" cy="-90" rx="38.6955" ry="18"/>
<text text-anchor="middle" x="1100.56" y="-85.8" font-family="Times,serif" font-size="14.00">Artemis</text>
</g>
<!-- Zeus&#45;&gt;Artemis -->
<g id="edge21" class="edge"><title>Zeus&#45;&gt;Artemis</title>
<path fill="none" stroke="black" d="M901.324,-154.061C935.675,-144.326 999.65,-125.806 1053.56,-108 1056.27,-107.107 1059.05,-106.164 1061.85,-105.198"/>
<polygon fill="black" stroke="black" points="1063.05,-108.486 1071.32,-101.865 1060.72,-101.883 1063.05,-108.486"/>
</g>
<!-- Aphrodite -->
<g id="node21" class="node"><title>Aphrodite</title>
<ellipse fill="none" stroke="pink" cx="670.562" cy="-90" rx="45.9286" ry="18"/>
<text text-anchor="middle" x="670.562" y="-85.8" font-family="Times,serif" font-size="14.00">Aphrodite</text>
</g>
<!-- Zeus&#45;&gt;Aphrodite -->
<g id="edge28" class="edge"><title>Zeus&#45;&gt;Aphrodite</title>
<path fill="none" stroke="black" d="M852.932,-152.97C819.008,-141.443 755.939,-120.011 713.603,-105.626"/>
<polygon fill="black" stroke="black" points="714.706,-102.304 704.111,-102.4 712.453,-108.931 714.706,-102.304"/>
</g>
<!-- Hephaestus -->
<g id="node24" class="node"><title>Hephaestus</title>
<ellipse fill="none" stroke="pink" cx="301.562" cy="-90" rx="50.7483" ry="18"/>
<text text-anchor="middle" x="301.562" y="-85.8" font-family="Times,serif" font-size="14.00">Hephaestus</text>
</g>
<!-- Zeus&#45;&gt;Hephaestus -->
<g id="edge34" class="edge"><title>Zeus&#45;&gt;Hephaestus</title>
<path fill="none" stroke="black" d="M852.268,-153.785C839.639,-150.303 823.887,-146.376 809.562,-144 612.501,-111.321 558.154,-143.396 361.562,-108 357.127,-107.201 352.548,-106.213 347.989,-105.118"/>
<polygon fill="black" stroke="black" points="348.66,-101.677 338.104,-102.581 346.92,-108.457 348.66,-101.677"/>
</g>
<!-- Athena -->
<g id="node28" class="node"><title>Athena</title>
<ellipse fill="none" stroke="pink" cx="1384.56" cy="-90" rx="35.7887" ry="18"/>
<text text-anchor="middle" x="1384.56" y="-85.8" font-family="Times,serif" font-size="14.00">Athena</text>
</g>
<!-- Zeus&#45;&gt;Athena -->
<g id="edge17" class="edge"><title>Zeus&#45;&gt;Athena</title>
<path fill="none" stroke="black" d="M901.181,-153.76C913.759,-150.316 929.368,-146.429 943.562,-144 1118.19,-114.121 1168.04,-148.315 1340.56,-108 1343.24,-107.375 1345.96,-106.622 1348.69,-105.786"/>
<polygon fill="black" stroke="black" points="1350.08,-109.009 1358.41,-102.469 1347.82,-102.384 1350.08,-109.009"/>
</g>
<!-- Persephone -->
<g id="node29" class="node"><title>Persephone</title>
<ellipse fill="none" stroke="pink" cx="993.562" cy="-90" rx="50.7483" ry="18"/>
<text text-anchor="middle" x="993.562" y="-85.8" font-family="Times,serif" font-size="14.00">Persephone</text>
</g>
<!-- Zeus&#45;&gt;Persephone -->
<g id="edge13" class="edge"><title>Zeus&#45;&gt;Persephone</title>
<path fill="none" stroke="black" d="M896.146,-149.284C913.486,-138.909 939.175,-123.54 959.819,-111.188"/>
<polygon fill="black" stroke="black" points="961.825,-114.067 968.61,-105.929 958.231,-108.06 961.825,-114.067"/>
</g>
<!-- Enyo -->
<g id="node32" class="node"><title>Enyo</title>
<ellipse fill="none" stroke="pink" cx="471.562" cy="-90" rx="28.5497" ry="18"/>
<text text-anchor="middle" x="471.562" y="-85.8" font-family="Times,serif" font-size="14.00">Enyo</text>
</g>
<!-- Zeus&#45;&gt;Enyo -->
<g id="edge42" class="edge"><title>Zeus&#45;&gt;Enyo</title>
<path fill="none" stroke="black" d="M851.913,-153.934C839.327,-150.534 823.72,-146.634 809.562,-144 677.538,-119.435 638.985,-143.825 509.562,-108 507.27,-107.366 504.94,-106.613 502.618,-105.784"/>
<polygon fill="black" stroke="black" points="503.834,-102.501 493.249,-102.046 501.24,-109.003 503.834,-102.501"/>
</g>
<!-- Eileithyia -->
<g id="node33" class="node"><title>Eileithyia</title>
<ellipse fill="none" stroke="pink" cx="562.562" cy="-90" rx="44.475" ry="18"/>
<text text-anchor="middle" x="562.562" y="-85.8" font-family="Times,serif" font-size="14.00">Eileithyia</text>
</g>
<!-- Zeus&#45;&gt;Eileithyia -->
<g id="edge40" class="edge"><title>Zeus&#45;&gt;Eileithyia</title>
<path fill="none" stroke="black" d="M851.835,-154.317C839.229,-151.014 823.628,-147.086 809.562,-144 723.906,-125.206 700.596,-129.435 615.562,-108 612.18,-107.147 608.698,-106.197 605.212,-105.194"/>
<polygon fill="black" stroke="black" points="606.038,-101.788 595.454,-102.264 604.025,-108.492 606.038,-101.788"/>
</g>
<!-- Eris -->
<g id="node34" class="node"><title>Eris</title>
<ellipse fill="none" stroke="pink" cx="397.562" cy="-90" rx="27" ry="18"/>
<text text-anchor="middle" x="397.562" y="-85.8" font-family="Times,serif" font-size="14.00">Eris</text>
</g>
<!-- Zeus&#45;&gt;Eris -->
<g id="edge38" class="edge"><title>Zeus&#45;&gt;Eris</title>
<path fill="none" stroke="black" d="M851.939,-153.791C839.359,-150.354 823.751,-146.464 809.562,-144 644.163,-115.272 595.431,-152.505 433.562,-108 431.613,-107.464 429.639,-106.829 427.672,-106.123"/>
<polygon fill="black" stroke="black" points="428.613,-102.726 418.033,-102.154 425.947,-109.198 428.613,-102.726"/>
</g>
<!-- Hebe -->
<g id="node35" class="node"><title>Hebe</title>
<ellipse fill="none" stroke="pink" cx="203.562" cy="-90" rx="28.5325" ry="18"/>
<text text-anchor="middle" x="203.562" y="-85.8" font-family="Times,serif" font-size="14.00">Hebe</text>
</g>
<!-- Zeus&#45;&gt;Hebe -->
<g id="edge36" class="edge"><title>Zeus&#45;&gt;Hebe</title>
<path fill="none" stroke="black" d="M852.284,-153.684C839.659,-150.176 823.907,-146.254 809.562,-144 559.679,-104.727 487.144,-168.613 241.562,-108 239.253,-107.43 236.91,-106.726 234.58,-105.931"/>
<polygon fill="black" stroke="black" points="235.779,-102.642 225.191,-102.268 233.235,-109.163 235.779,-102.642"/>
</g>
<!-- Tyche -->
<g id="node44" class="node"><title>Tyche</title>
<ellipse fill="none" stroke="pink" cx="841.562" cy="-18" rx="31.6703" ry="18"/>
<text text-anchor="middle" x="841.562" y="-13.8" font-family="Times,serif" font-size="14.00">Tyche</text>
</g>
<!-- Zeus&#45;&gt;Tyche -->
<g id="edge70" class="edge"><title>Zeus&#45;&gt;Tyche</title>
<path fill="none" stroke="black" d="M871.907,-143.844C869.126,-133.482 865.563,-120.003 862.562,-108 857.397,-87.3377 851.878,-63.8898 847.795,-46.2502"/>
<polygon fill="black" stroke="black" points="851.111,-45.0529 845.454,-36.0945 844.29,-46.6251 851.111,-45.0529"/>
</g>
<!-- Eunomia -->
<g id="node45" class="node"><title>Eunomia</title>
<ellipse fill="none" stroke="pink" cx="1480.56" cy="-90" rx="42.0697" ry="18"/>
<text text-anchor="middle" x="1480.56" y="-85.8" font-family="Times,serif" font-size="14.00">Eunomia</text>
</g>
<!-- Zeus&#45;&gt;Eunomia -->
<g id="edge72" class="edge"><title>Zeus&#45;&gt;Eunomia</title>
<path fill="none" stroke="black" d="M900.851,-153.748C913.478,-150.256 929.23,-146.331 943.562,-144 1157.35,-109.234 1217.2,-150.573 1429.56,-108 1433.16,-107.279 1436.86,-106.378 1440.53,-105.37"/>
<polygon fill="black" stroke="black" points="1441.57,-108.714 1450.15,-102.501 1439.57,-102.006 1441.57,-108.714"/>
</g>
<!-- Cronus -->
<g id="node2" class="node"><title>Cronus</title>
<ellipse fill="none" stroke="blue" cx="1426.56" cy="-234" rx="35.8147" ry="18"/>
<text text-anchor="middle" x="1426.56" y="-229.8" font-family="Times,serif" font-size="14.00">Cronus</text>
</g>
<!-- Cronus&#45;&gt;Zeus -->
<g id="edge1" class="edge"><title>Cronus&#45;&gt;Zeus</title>
<path fill="none" stroke="black" d="M1400.29,-221.674C1394.24,-219.46 1387.75,-217.395 1381.56,-216 1191.02,-173.069 1136.22,-212.13 943.562,-180 932.909,-178.223 921.465,-175.595 911.104,-172.933"/>
<polygon fill="black" stroke="black" points="911.736,-169.479 901.172,-170.29 909.936,-176.244 911.736,-169.479"/>
</g>
<!-- Poseidon -->
<g id="node3" class="node"><title>Poseidon</title>
<ellipse fill="none" stroke="blue" cx="1426.56" cy="-162" rx="42.5715" ry="18"/>
<text text-anchor="middle" x="1426.56" y="-157.8" font-family="Times,serif" font-size="14.00">Poseidon</text>
</g>
<!-- Cronus&#45;&gt;Poseidon -->
<g id="edge11" class="edge"><title>Cronus&#45;&gt;Poseidon</title>
<path fill="none" stroke="black" d="M1426.56,-215.697C1426.56,-207.983 1426.56,-198.712 1426.56,-190.112"/>
<polygon fill="black" stroke="black" points="1430.06,-190.104 1426.56,-180.104 1423.06,-190.104 1430.06,-190.104"/>
</g>
<!-- Hades -->
<g id="node7" class="node"><title>Hades</title>
<ellipse fill="none" stroke="blue" cx="1718.56" cy="-162" rx="32.415" ry="18"/>
<text text-anchor="middle" x="1718.56" y="-157.8" font-family="Times,serif" font-size="14.00">Hades</text>
</g>
<!-- Cronus&#45;&gt;Hades -->
<g id="edge7" class="edge"><title>Cronus&#45;&gt;Hades</title>
<path fill="none" stroke="black" d="M1460.36,-227.906C1509.04,-220.111 1601.41,-203.603 1677.56,-180 1679.86,-179.288 1682.21,-178.496 1684.56,-177.656"/>
<polygon fill="black" stroke="black" points="1686.03,-180.841 1694.12,-174 1683.53,-174.303 1686.03,-180.841"/>
</g>
<!-- Chiron -->
<g id="node11" class="node"><title>Chiron</title>
<ellipse fill="none" stroke="blue" cx="1803.56" cy="-162" rx="34.8458" ry="18"/>
<text text-anchor="middle" x="1803.56" y="-157.8" font-family="Times,serif" font-size="14.00">Chiron</text>
</g>
<!-- Cronus&#45;&gt;Chiron -->
<g id="edge44" class="edge"><title>Cronus&#45;&gt;Chiron</title>
<path fill="none" stroke="black" d="M1461.58,-229.878C1522.83,-223.879 1653.02,-208.716 1759.56,-180 1762.21,-179.285 1764.93,-178.466 1767.64,-177.582"/>
<polygon fill="black" stroke="black" points="1769.07,-180.789 1777.34,-174.169 1766.74,-174.186 1769.07,-180.789"/>
</g>
<!-- Hestia -->
<g id="node25" class="node"><title>Hestia</title>
<ellipse fill="none" stroke="pink" cx="1519.56" cy="-162" rx="32.8994" ry="18"/>
<text text-anchor="middle" x="1519.56" y="-157.8" font-family="Times,serif" font-size="14.00">Hestia</text>
</g>
<!-- Cronus&#45;&gt;Hestia -->
<g id="edge9" class="edge"><title>Cronus&#45;&gt;Hestia</title>
<path fill="none" stroke="black" d="M1445.83,-218.496C1459.35,-208.319 1477.62,-194.573 1492.58,-183.308"/>
<polygon fill="black" stroke="black" points="1495.07,-185.818 1500.95,-177.008 1490.86,-180.225 1495.07,-185.818"/>
</g>
<!-- Hera -->
<g id="node27" class="node"><title>Hera</title>
<ellipse fill="none" stroke="pink" cx="434.562" cy="-162" rx="27.0787" ry="18"/>
<text text-anchor="middle" x="434.562" y="-157.8" font-family="Times,serif" font-size="14.00">Hera</text>
</g>
<!-- Cronus&#45;&gt;Hera -->
<g id="edge3" class="edge"><title>Cronus&#45;&gt;Hera</title>
<path fill="none" stroke="black" d="M1400.32,-221.517C1394.27,-219.311 1387.78,-217.289 1381.56,-216 1053.93,-148.043 963.408,-202.535 629.562,-180 574.435,-176.279 510.673,-170.427 471.482,-166.652"/>
<polygon fill="black" stroke="black" points="471.639,-163.151 461.348,-165.669 470.963,-170.118 471.639,-163.151"/>
</g>
<!-- Demeter -->
<g id="node30" class="node"><title>Demeter</title>
<ellipse fill="none" stroke="pink" cx="993.562" cy="-162" rx="40.5989" ry="18"/>
<text text-anchor="middle" x="993.562" y="-157.8" font-family="Times,serif" font-size="14.00">Demeter</text>
</g>
<!-- Cronus&#45;&gt;Demeter -->
<g id="edge5" class="edge"><title>Cronus&#45;&gt;Demeter</title>
<path fill="none" stroke="black" d="M1400.26,-221.785C1394.21,-219.565 1387.74,-217.47 1381.56,-216 1234.6,-181.021 1191.09,-212.515 1043.56,-180 1040.15,-179.247 1036.64,-178.341 1033.14,-177.344"/>
<polygon fill="black" stroke="black" points="1033.98,-173.942 1023.4,-174.346 1031.93,-180.632 1033.98,-173.942"/>
</g>
<!-- Triton -->
<g id="node12" class="node"><title>Triton</title>
<ellipse fill="none" stroke="blue" cx="1577.56" cy="-90" rx="31.8094" ry="18"/>
<text text-anchor="middle" x="1577.56" y="-85.8" font-family="Times,serif" font-size="14.00">Triton</text>
</g>
<!-- Poseidon&#45;&gt;Triton -->
<g id="edge51" class="edge"><title>Poseidon&#45;&gt;Triton</title>
<path fill="none" stroke="black" d="M1454.26,-148.161C1479.7,-136.368 1517.43,-118.874 1544.45,-106.348"/>
<polygon fill="black" stroke="black" points="1545.93,-109.524 1553.53,-102.142 1542.98,-103.173 1545.93,-109.524"/>
</g>
<!-- Eros -->
<g id="node36" class="node"><title>Eros</title>
<ellipse fill="none" stroke="blue" cx="126.562" cy="-18" rx="27" ry="18"/>
<text text-anchor="middle" x="126.562" y="-13.8" font-family="Times,serif" font-size="14.00">Eros</text>
</g>
<!-- Ares&#45;&gt;Eros -->
<g id="edge54" class="edge"><title>Ares&#45;&gt;Eros</title>
<path fill="none" stroke="black" d="M128.821,-71.6966C128.49,-63.9827 128.093,-54.7125 127.724,-46.1124"/>
<polygon fill="black" stroke="black" points="131.22,-45.9453 127.295,-36.1043 124.227,-46.2451 131.22,-45.9453"/>
</g>
<!-- Phobos -->
<g id="node37" class="node"><title>Phobos</title>
<ellipse fill="none" stroke="blue" cx="207.562" cy="-18" rx="36.3078" ry="18"/>
<text text-anchor="middle" x="207.562" y="-13.8" font-family="Times,serif" font-size="14.00">Phobos</text>
</g>
<!-- Ares&#45;&gt;Phobos -->
<g id="edge56" class="edge"><title>Ares&#45;&gt;Phobos</title>
<path fill="none" stroke="black" d="M144.973,-75.1703C155.826,-65.4303 170.583,-52.1866 183.042,-41.0052"/>
<polygon fill="black" stroke="black" points="185.729,-43.2967 190.834,-34.0127 181.054,-38.087 185.729,-43.2967"/>
</g>
<!-- Deimos -->
<g id="node38" class="node"><title>Deimos</title>
<ellipse fill="none" stroke="blue" cx="299.562" cy="-18" rx="37.7352" ry="18"/>
<text text-anchor="middle" x="299.562" y="-13.8" font-family="Times,serif" font-size="14.00">Deimos</text>
</g>
<!-- Ares&#45;&gt;Deimos -->
<g id="edge58" class="edge"><title>Ares&#45;&gt;Deimos</title>
<path fill="none" stroke="black" d="M150.779,-78.703C155.612,-76.4354 160.742,-74.0886 165.562,-72 197.558,-58.1353 234.435,-43.6569 261.394,-33.3431"/>
<polygon fill="black" stroke="black" points="262.752,-36.5715 270.85,-29.7406 260.26,-30.0301 262.752,-36.5715"/>
</g>
<!-- Harmonia -->
<g id="node39" class="node"><title>Harmonia</title>
<ellipse fill="none" stroke="pink" cx="400.562" cy="-18" rx="45.4355" ry="18"/>
<text text-anchor="middle" x="400.562" y="-13.8" font-family="Times,serif" font-size="14.00">Harmonia</text>
</g>
<!-- Ares&#45;&gt;Harmonia -->
<g id="edge60" class="edge"><title>Ares&#45;&gt;Harmonia</title>
<path fill="none" stroke="black" d="M150.147,-78.2233C155.101,-75.9277 160.443,-73.6895 165.562,-72 243.451,-46.2961 267.105,-56.3448 346.562,-36 350.103,-35.0934 353.755,-34.0914 357.41,-33.041"/>
<polygon fill="black" stroke="black" points="358.437,-36.3873 367.022,-30.1793 356.439,-29.6784 358.437,-36.3873"/>
</g>
<!-- Adrestia -->
<g id="node40" class="node"><title>Adrestia</title>
<ellipse fill="none" stroke="Pink" cx="504.562" cy="-18" rx="40.1317" ry="18"/>
<text text-anchor="middle" x="504.562" y="-13.8" font-family="Times,serif" font-size="14.00">Adrestia</text>
</g>
<!-- Ares&#45;&gt;Adrestia -->
<g id="edge64" class="edge"><title>Ares&#45;&gt;Adrestia</title>
<path fill="none" stroke="black" d="M150.064,-77.9529C155.02,-75.6685 160.385,-73.5031 165.562,-72 289.867,-35.9117 328.412,-64.9834 454.562,-36 458.018,-35.2061 461.571,-34.2641 465.112,-33.2368"/>
<polygon fill="black" stroke="black" points="466.464,-36.4816 474.973,-30.1684 464.385,-29.7977 466.464,-36.4816"/>
</g>
<!-- Anteros -->
<g id="node41" class="node"><title>Anteros</title>
<ellipse fill="none" stroke="blue" cx="600.562" cy="-18" rx="38.211" ry="18"/>
<text text-anchor="middle" x="600.562" y="-13.8" font-family="Times,serif" font-size="14.00">Anteros</text>
</g>
<!-- Ares&#45;&gt;Anteros -->
<g id="edge62" class="edge"><title>Ares&#45;&gt;Anteros</title>
<path fill="none" stroke="black" d="M150.03,-77.8347C154.989,-75.5551 160.362,-73.4216 165.562,-72 332.618,-26.3322 384.544,-73.7586 553.562,-36 556.598,-35.3219 559.705,-34.5004 562.803,-33.589"/>
<polygon fill="black" stroke="black" points="564.133,-36.8378 572.576,-30.4371 561.984,-30.1758 564.133,-36.8378"/>
</g>
<!-- Himeros -->
<g id="node42" class="node"><title>Himeros</title>
<ellipse fill="none" stroke="blue" cx="40.5624" cy="-18" rx="40.6248" ry="18"/>
<text text-anchor="middle" x="40.5624" y="-13.8" font-family="Times,serif" font-size="14.00">Himeros</text>
</g>
<!-- Ares&#45;&gt;Himeros -->
<g id="edge66" class="edge"><title>Ares&#45;&gt;Himeros</title>
<path fill="none" stroke="black" d="M112.822,-75.8335C100.194,-65.9016 82.601,-52.0641 67.936,-40.5298"/>
<polygon fill="black" stroke="black" points="69.7234,-37.4828 59.6995,-34.0517 65.3959,-42.9849 69.7234,-37.4828"/>
</g>
<!-- Hades&#45;&gt;Zagreus -->
<g id="edge27" class="edge"><title>Hades&#45;&gt;Zagreus</title>
<path fill="none" stroke="black" d="M1703.94,-145.854C1681.26,-122.753 1638.19,-80.4892 1618.56,-72 1521.36,-29.9522 1199.43,-21.2594 1075.64,-19.4654"/>
<polygon fill="black" stroke="black" points="1075.38,-15.9616 1065.34,-19.3255 1075.29,-22.961 1075.38,-15.9616"/>
</g>
<!-- Macaria -->
<g id="node14" class="node"><title>Macaria</title>
<ellipse fill="none" stroke="pink" cx="1718.56" cy="-90" rx="39.1454" ry="18"/>
<text text-anchor="middle" x="1718.56" y="-85.8" font-family="Times,serif" font-size="14.00">Macaria</text>
</g>
<!-- Hades&#45;&gt;Macaria -->
<g id="edge50" class="edge"><title>Hades&#45;&gt;Macaria</title>
<path fill="none" stroke="black" d="M1718.56,-143.697C1718.56,-135.983 1718.56,-126.712 1718.56,-118.112"/>
<polygon fill="black" stroke="black" points="1722.06,-118.104 1718.56,-108.104 1715.06,-118.104 1722.06,-118.104"/>
</g>
<!-- Hermaphroditus -->
<g id="node43" class="node"><title>Hermaphroditus</title>
<ellipse fill="none" stroke="purple" cx="724.562" cy="-18" rx="67.6529" ry="18"/>
<text text-anchor="middle" x="724.562" y="-13.8" font-family="Times,serif" font-size="14.00">Hermaphroditus</text>
</g>
<!-- Hermes&#45;&gt;Hermaphroditus -->
<g id="edge68" class="edge"><title>Hermes&#45;&gt;Hermaphroditus</title>
<path fill="none" stroke="black" d="M761.43,-72.7646C755.662,-64.3538 748.487,-53.8904 742.004,-44.4356"/>
<polygon fill="black" stroke="black" points="744.846,-42.3919 736.304,-36.1239 739.073,-46.3506 744.846,-42.3919"/>
</g>
<!-- Hermes&#45;&gt;Tyche -->
<g id="edge71" class="edge"><title>Hermes&#45;&gt;Tyche</title>
<path fill="none" stroke="black" d="M787.876,-73.4647C797.205,-64.0006 809.278,-51.7522 819.612,-41.2683"/>
<polygon fill="black" stroke="black" points="822.238,-43.5902 826.765,-34.0114 817.253,-38.6762 822.238,-43.5902"/>
</g>
<!-- Uranus -->
<g id="node10" class="node"><title>Uranus</title>
<ellipse fill="none" stroke="blue" cx="1425.56" cy="-306" rx="35.7974" ry="18"/>
<text text-anchor="middle" x="1425.56" y="-301.8" font-family="Times,serif" font-size="14.00">Uranus</text>
</g>
<!-- Uranus&#45;&gt;Cronus -->
<g id="edge46" class="edge"><title>Uranus&#45;&gt;Cronus</title>
<path fill="none" stroke="black" d="M1425.81,-287.697C1425.92,-279.983 1426.05,-270.712 1426.18,-262.112"/>
<polygon fill="black" stroke="black" points="1429.67,-262.153 1426.32,-252.104 1422.68,-262.053 1429.67,-262.153"/>
</g>
<!-- Rhea -->
<g id="node31" class="node"><title>Rhea</title>
<ellipse fill="none" stroke="pink" cx="1344.56" cy="-234" rx="28.0565" ry="18"/>
<text text-anchor="middle" x="1344.56" y="-229.8" font-family="Times,serif" font-size="14.00">Rhea</text>
</g>
<!-- Uranus&#45;&gt;Rhea -->
<g id="edge48" class="edge"><title>Uranus&#45;&gt;Rhea</title>
<path fill="none" stroke="black" d="M1408.38,-290.155C1396.69,-280.051 1381.07,-266.549 1368.21,-255.433"/>
<polygon fill="black" stroke="black" points="1370.47,-252.762 1360.61,-248.872 1365.89,-258.058 1370.47,-252.762"/>
</g>
<!-- Amphitrite -->
<g id="node13" class="node"><title>Amphitrite</title>
<ellipse fill="none" stroke="pink" cx="1619.56" cy="-162" rx="48.8273" ry="18"/>
<text text-anchor="middle" x="1619.56" y="-157.8" font-family="Times,serif" font-size="14.00">Amphitrite</text>
</g>
<!-- Amphitrite&#45;&gt;Triton -->
<g id="edge52" class="edge"><title>Amphitrite&#45;&gt;Triton</title>
<path fill="none" stroke="black" d="M1609.4,-144.055C1604.37,-135.679 1598.2,-125.404 1592.64,-116.134"/>
<polygon fill="black" stroke="black" points="1595.49,-114.081 1587.35,-107.307 1589.49,-117.683 1595.49,-114.081"/>
</g>
<!-- Gaia -->
<g id="node15" class="node"><title>Gaia</title>
<ellipse fill="none" stroke="pink" cx="1344.56" cy="-306" rx="27" ry="18"/>
<text text-anchor="middle" x="1344.56" y="-301.8" font-family="Times,serif" font-size="14.00">Gaia</text>
</g>
<!-- Gaia&#45;&gt;Cronus -->
<g id="edge47" class="edge"><title>Gaia&#45;&gt;Cronus</title>
<path fill="none" stroke="black" d="M1360.76,-291.17C1372.36,-281.272 1388.19,-267.754 1401.42,-256.46"/>
<polygon fill="black" stroke="black" points="1403.93,-258.922 1409.26,-249.768 1399.38,-253.598 1403.93,-258.922"/>
</g>
<!-- Gaia&#45;&gt;Rhea -->
<g id="edge49" class="edge"><title>Gaia&#45;&gt;Rhea</title>
<path fill="none" stroke="black" d="M1344.56,-287.697C1344.56,-279.983 1344.56,-270.712 1344.56,-262.112"/>
<polygon fill="black" stroke="black" points="1348.06,-262.104 1344.56,-252.104 1341.06,-262.104 1348.06,-262.104"/>
</g>
<!-- Philyra -->
<g id="node16" class="node"><title>Philyra</title>
<ellipse fill="none" stroke="pink" cx="1803.56" cy="-234" rx="35.806" ry="18"/>
<text text-anchor="middle" x="1803.56" y="-229.8" font-family="Times,serif" font-size="14.00">Philyra</text>
</g>
<!-- Philyra&#45;&gt;Chiron -->
<g id="edge45" class="edge"><title>Philyra&#45;&gt;Chiron</title>
<path fill="none" stroke="black" d="M1803.56,-215.697C1803.56,-207.983 1803.56,-198.712 1803.56,-190.112"/>
<polygon fill="black" stroke="black" points="1807.06,-190.104 1803.56,-180.104 1800.06,-190.104 1807.06,-190.104"/>
</g>
<!-- Semele -->
<g id="node19" class="node"><title>Semele</title>
<ellipse fill="none" stroke="pink" cx="1160.56" cy="-162" rx="36.2732" ry="18"/>
<text text-anchor="middle" x="1160.56" y="-157.8" font-family="Times,serif" font-size="14.00">Semele</text>
</g>
<!-- Semele&#45;&gt;Dionysus -->
<g id="edge33" class="edge"><title>Semele&#45;&gt;Dionysus</title>
<path fill="none" stroke="black" d="M1183.86,-148.161C1203.28,-137.455 1231.23,-122.049 1253.22,-109.928"/>
<polygon fill="black" stroke="black" points="1255.17,-112.85 1262.24,-104.958 1251.79,-106.72 1255.17,-112.85"/>
</g>
<!-- Maia -->
<g id="node20" class="node"><title>Maia</title>
<ellipse fill="none" stroke="pink" cx="772.562" cy="-162" rx="28.0565" ry="18"/>
<text text-anchor="middle" x="772.562" y="-157.8" font-family="Times,serif" font-size="14.00">Maia</text>
</g>
<!-- Maia&#45;&gt;Hermes -->
<g id="edge31" class="edge"><title>Maia&#45;&gt;Hermes</title>
<path fill="none" stroke="black" d="M772.562,-143.697C772.562,-135.983 772.562,-126.712 772.562,-118.112"/>
<polygon fill="black" stroke="black" points="776.062,-118.104 772.562,-108.104 769.062,-118.104 776.062,-118.104"/>
</g>
<!-- Aphrodite&#45;&gt;Eros -->
<g id="edge53" class="edge"><title>Aphrodite&#45;&gt;Eros</title>
<path fill="none" stroke="black" d="M637.413,-77.4659C630.279,-75.3476 622.728,-73.3746 615.562,-72 417.211,-33.9478 357.73,-87.9692 162.562,-36 160.392,-35.422 158.192,-34.7167 156.005,-33.9259"/>
<polygon fill="black" stroke="black" points="157.214,-30.6381 146.636,-30.0396 154.532,-37.104 157.214,-30.6381"/>
</g>
<!-- Aphrodite&#45;&gt;Phobos -->
<g id="edge55" class="edge"><title>Aphrodite&#45;&gt;Phobos</title>
<path fill="none" stroke="black" d="M637.098,-77.4859C630.052,-75.3928 622.616,-73.4248 615.562,-72 456.647,-39.8999 410.417,-72.9651 252.562,-36 249.742,-35.3395 246.859,-34.5459 243.984,-33.6673"/>
<polygon fill="black" stroke="black" points="244.926,-30.2917 234.332,-30.4232 242.696,-36.9269 244.926,-30.2917"/>
</g>
<!-- Aphrodite&#45;&gt;Deimos -->
<g id="edge57" class="edge"><title>Aphrodite&#45;&gt;Deimos</title>
<path fill="none" stroke="black" d="M637.059,-77.6724C630.016,-75.5658 622.59,-73.5451 615.562,-72 497.754,-46.0999 463.725,-64.6779 346.562,-36 343.541,-35.2605 340.445,-34.3949 337.353,-33.4529"/>
<polygon fill="black" stroke="black" points="338.187,-30.0427 327.594,-30.245 336.001,-36.6927 338.187,-30.0427"/>
</g>
<!-- Aphrodite&#45;&gt;Harmonia -->
<g id="edge59" class="edge"><title>Aphrodite&#45;&gt;Harmonia</title>
<path fill="none" stroke="black" d="M636.356,-77.9722C629.498,-75.8899 622.322,-73.8022 615.562,-72 545.134,-53.2233 525.991,-54.7767 455.562,-36 451.971,-35.0426 448.263,-34.0046 444.547,-32.9296"/>
<polygon fill="black" stroke="black" points="445.352,-29.5176 434.769,-30.0278 443.36,-36.2283 445.352,-29.5176"/>
</g>
<!-- Aphrodite&#45;&gt;Adrestia -->
<g id="edge63" class="edge"><title>Aphrodite&#45;&gt;Adrestia</title>
<path fill="none" stroke="black" d="M640.501,-76.3235C612.848,-64.6628 571.741,-47.3282 541.974,-34.7761"/>
<polygon fill="black" stroke="black" points="543.314,-31.5426 532.74,-30.882 540.594,-37.9926 543.314,-31.5426"/>
</g>
<!-- Aphrodite&#45;&gt;Anteros -->
<g id="edge61" class="edge"><title>Aphrodite&#45;&gt;Anteros</title>
<path fill="none" stroke="black" d="M654.327,-72.7646C645.187,-63.6243 633.622,-52.0599 623.563,-42.0001"/>
<polygon fill="black" stroke="black" points="625.774,-39.262 616.228,-34.6658 620.824,-44.2118 625.774,-39.262"/>
</g>
<!-- Aphrodite&#45;&gt;Himeros -->
<g id="edge65" class="edge"><title>Aphrodite&#45;&gt;Himeros</title>
<path fill="none" stroke="black" d="M637.424,-77.4063C630.289,-75.292 622.735,-73.3357 615.562,-72 385.634,-29.1806 319.869,-82.0298 90.5624,-36 87.0861,-35.3022 83.519,-34.4273 79.968,-33.4447"/>
<polygon fill="black" stroke="black" points="80.677,-30.0023 70.0916,-30.448 78.6446,-36.7007 80.677,-30.0023"/>
</g>
<!-- Aphrodite&#45;&gt;Hermaphroditus -->
<g id="edge67" class="edge"><title>Aphrodite&#45;&gt;Hermaphroditus</title>
<path fill="none" stroke="black" d="M683.36,-72.411C689.921,-63.9056 698.047,-53.3724 705.343,-43.9138"/>
<polygon fill="black" stroke="black" points="708.145,-46.0119 711.482,-35.9562 702.603,-41.7362 708.145,-46.0119"/>
</g>
<!-- Aphrodite&#45;&gt;Tyche -->
<g id="edge69" class="edge"><title>Aphrodite&#45;&gt;Tyche</title>
<path fill="none" stroke="black" d="M701.592,-76.6226C728.176,-65.9768 767.456,-50.1457 801.562,-36 803.601,-35.1544 805.696,-34.2802 807.808,-33.3948"/>
<polygon fill="black" stroke="black" points="809.198,-36.6072 817.052,-29.4965 806.478,-30.1572 809.198,-36.6072"/>
</g>
<!-- Dione -->
<g id="node22" class="node"><title>Dione</title>
<ellipse fill="none" stroke="pink" cx="670.562" cy="-162" rx="31.9393" ry="18"/>
<text text-anchor="middle" x="670.562" y="-157.8" font-family="Times,serif" font-size="14.00">Dione</text>
</g>
<!-- Dione&#45;&gt;Aphrodite -->
<g id="edge29" class="edge"><title>Dione&#45;&gt;Aphrodite</title>
<path fill="none" stroke="black" d="M670.562,-143.697C670.562,-135.983 670.562,-126.712 670.562,-118.112"/>
<polygon fill="black" stroke="black" points="674.062,-118.104 670.562,-108.104 667.062,-118.104 674.062,-118.104"/>
</g>
<!-- Leto -->
<g id="node23" class="node"><title>Leto</title>
<ellipse fill="none" stroke="pink" cx="1079.56" cy="-162" rx="27" ry="18"/>
<text text-anchor="middle" x="1079.56" y="-157.8" font-family="Times,serif" font-size="14.00">Leto</text>
</g>
<!-- Leto&#45;&gt;Apollo -->
<g id="edge20" class="edge"><title>Leto&#45;&gt;Apollo</title>
<path fill="none" stroke="black" d="M1098.56,-149.125C1115.77,-138.369 1141.42,-122.337 1161.43,-109.834"/>
<polygon fill="black" stroke="black" points="1163.55,-112.637 1170.17,-104.369 1159.84,-106.701 1163.55,-112.637"/>
</g>
<!-- Leto&#45;&gt;Artemis -->
<g id="edge22" class="edge"><title>Leto&#45;&gt;Artemis</title>
<path fill="none" stroke="black" d="M1084.65,-144.055C1086.98,-136.261 1089.82,-126.822 1092.44,-118.079"/>
<polygon fill="black" stroke="black" points="1095.86,-118.859 1095.38,-108.275 1089.15,-116.848 1095.86,-118.859"/>
</g>
<!-- Metis -->
<g id="node26" class="node"><title>Metis</title>
<ellipse fill="none" stroke="pink" cx="1244.56" cy="-162" rx="30.0035" ry="18"/>
<text text-anchor="middle" x="1244.56" y="-157.8" font-family="Times,serif" font-size="14.00">Metis</text>
</g>
<!-- Metis&#45;&gt;Athena -->
<g id="edge18" class="edge"><title>Metis&#45;&gt;Athena</title>
<path fill="none" stroke="black" d="M1267.06,-149.753C1289.64,-138.463 1324.7,-120.93 1350.66,-107.954"/>
<polygon fill="black" stroke="black" points="1352.39,-111.001 1359.76,-103.399 1349.26,-104.74 1352.39,-111.001"/>
</g>
<!-- Hera&#45;&gt;Ares -->
<g id="edge16" class="edge"><title>Hera&#45;&gt;Ares</title>
<path fill="none" stroke="black" d="M407.66,-157.932C358.596,-151.85 251.697,-136.339 165.562,-108 163.642,-107.368 161.69,-106.659 159.74,-105.898"/>
<polygon fill="black" stroke="black" points="160.715,-102.508 150.145,-101.783 157.956,-108.941 160.715,-102.508"/>
</g>
<!-- Hera&#45;&gt;Hephaestus -->
<g id="edge35" class="edge"><title>Hera&#45;&gt;Hephaestus</title>
<path fill="none" stroke="black" d="M413.781,-150.062C393.439,-139.356 362.035,-122.828 337.616,-109.976"/>
<polygon fill="black" stroke="black" points="339.117,-106.81 328.637,-105.25 335.856,-113.005 339.117,-106.81"/>
</g>
<!-- Hera&#45;&gt;Enyo -->
<g id="edge43" class="edge"><title>Hera&#45;&gt;Enyo</title>
<path fill="none" stroke="black" d="M443.144,-144.765C447.563,-136.404 453.054,-126.016 458.028,-116.606"/>
<polygon fill="black" stroke="black" points="461.192,-118.11 462.77,-107.633 455.003,-114.839 461.192,-118.11"/>
</g>
<!-- Hera&#45;&gt;Eileithyia -->
<g id="edge41" class="edge"><title>Hera&#45;&gt;Eileithyia</title>
<path fill="none" stroke="black" d="M454.844,-149.908C474.51,-139.154 504.724,-122.63 528.154,-109.817"/>
<polygon fill="black" stroke="black" points="529.99,-112.802 537.085,-104.933 526.632,-106.66 529.99,-112.802"/>
</g>
<!-- Hera&#45;&gt;Eris -->
<g id="edge39" class="edge"><title>Hera&#45;&gt;Eris</title>
<path fill="none" stroke="black" d="M425.981,-144.765C421.498,-136.283 415.911,-125.714 410.881,-116.197"/>
<polygon fill="black" stroke="black" points="413.865,-114.353 406.097,-107.147 407.676,-117.624 413.865,-114.353"/>
</g>
<!-- Hera&#45;&gt;Hebe -->
<g id="edge37" class="edge"><title>Hera&#45;&gt;Hebe</title>
<path fill="none" stroke="black" d="M409.199,-155.343C371.935,-146.738 300.436,-129.113 241.562,-108 239.462,-107.247 237.315,-106.428 235.164,-105.57"/>
<polygon fill="black" stroke="black" points="236.41,-102.297 225.835,-101.645 233.695,-108.749 236.41,-102.297"/>
</g>
<!-- Persephone&#45;&gt;Zagreus -->
<g id="edge25" class="edge"><title>Persephone&#45;&gt;Zagreus</title>
<path fill="none" stroke="black" d="M1001.55,-72.055C1005.36,-63.9726 1010.01,-54.1214 1014.25,-45.1117"/>
<polygon fill="black" stroke="black" points="1017.55,-46.3268 1018.65,-35.789 1011.22,-43.3418 1017.55,-46.3268"/>
</g>
<!-- Persephone&#45;&gt;Melinoe -->
<g id="edge23" class="edge"><title>Persephone&#45;&gt;Melinoe</title>
<path fill="none" stroke="black" d="M978.632,-72.411C970.593,-63.4786 960.541,-52.3096 951.71,-42.4976"/>
<polygon fill="black" stroke="black" points="954.243,-40.0797 944.952,-34.9881 949.04,-44.7625 954.243,-40.0797"/>
</g>
<!-- Demeter&#45;&gt;Persephone -->
<g id="edge14" class="edge"><title>Demeter&#45;&gt;Persephone</title>
<path fill="none" stroke="black" d="M993.562,-143.697C993.562,-135.983 993.562,-126.712 993.562,-118.112"/>
<polygon fill="black" stroke="black" points="997.062,-118.104 993.562,-108.104 990.062,-118.104 997.062,-118.104"/>
</g>
<!-- Rhea&#45;&gt;Zeus -->
<g id="edge2" class="edge"><title>Rhea&#45;&gt;Zeus</title>
<path fill="none" stroke="black" d="M1316.67,-230.449C1251.16,-224.211 1082.52,-206.716 943.562,-180 932.956,-177.961 921.526,-175.254 911.163,-172.602"/>
<polygon fill="black" stroke="black" points="911.786,-169.147 901.225,-169.994 910.01,-175.917 911.786,-169.147"/>
</g>
<!-- Rhea&#45;&gt;Poseidon -->
<g id="edge12" class="edge"><title>Rhea&#45;&gt;Poseidon</title>
<path fill="none" stroke="black" d="M1360.76,-219.17C1372.13,-209.469 1387.56,-196.293 1400.63,-185.14"/>
<polygon fill="black" stroke="black" points="1403.06,-187.661 1408.4,-178.507 1398.52,-182.337 1403.06,-187.661"/>
</g>
<!-- Rhea&#45;&gt;Hades -->
<g id="edge8" class="edge"><title>Rhea&#45;&gt;Hades</title>
<path fill="none" stroke="black" d="M1365.66,-221.951C1370.75,-219.667 1376.26,-217.502 1381.56,-216 1509.08,-179.904 1549.39,-213.691 1677.56,-180 1680.04,-179.349 1682.57,-178.58 1685.09,-177.735"/>
<polygon fill="black" stroke="black" points="1686.5,-180.944 1694.66,-174.187 1684.06,-174.381 1686.5,-180.944"/>
</g>
<!-- Rhea&#45;&gt;Hestia -->
<g id="edge10" class="edge"><title>Rhea&#45;&gt;Hestia</title>
<path fill="none" stroke="black" d="M1366.75,-222.478C1371.6,-220.269 1376.73,-218.004 1381.56,-216 1424.04,-198.388 1435.76,-196.809 1478.56,-180 1480.66,-179.176 1482.81,-178.319 1484.98,-177.446"/>
<polygon fill="black" stroke="black" points="1486.53,-180.594 1494.47,-173.579 1483.89,-174.112 1486.53,-180.594"/>
</g>
<!-- Rhea&#45;&gt;Hera -->
<g id="edge4" class="edge"><title>Rhea&#45;&gt;Hera</title>
<path fill="none" stroke="black" d="M1316.61,-231.059C1220.82,-224.38 896.933,-201.563 629.562,-180 574.488,-175.558 510.712,-169.901 471.503,-166.364"/>
<polygon fill="black" stroke="black" points="471.639,-162.862 461.364,-165.447 471.008,-169.834 471.639,-162.862"/>
</g>
<!-- Rhea&#45;&gt;Demeter -->
<g id="edge6" class="edge"><title>Rhea&#45;&gt;Demeter</title>
<path fill="none" stroke="black" d="M1316.87,-229.572C1263.47,-222.644 1142.76,-205.437 1043.56,-180 1040.22,-179.143 1036.78,-178.17 1033.34,-177.135"/>
<polygon fill="black" stroke="black" points="1034.34,-173.778 1023.75,-174.093 1032.22,-180.451 1034.34,-173.778"/>
</g>
<!-- Themis -->
<g id="node46" class="node"><title>Themis</title>
<ellipse fill="none" stroke="black" cx="1329.56" cy="-162" rx="36.7663" ry="18"/>
<text text-anchor="middle" x="1329.56" y="-157.8" font-family="Times,serif" font-size="14.00">Themis</text>
</g>
<!-- Themis&#45;&gt;Eunomia -->
<g id="edge73" class="edge"><title>Themis&#45;&gt;Eunomia</title>
<path fill="none" stroke="black" d="M1355.18,-149.125C1379.49,-137.855 1416.29,-120.794 1443.75,-108.068"/>
<polygon fill="black" stroke="black" points="1445.43,-111.145 1453.03,-103.763 1442.49,-104.794 1445.43,-111.145"/>
</g>
</g>
</svg>
